#!OML:ASF Y:\EmotionMaleHayes\Project 1\Capture day 1\Session 1\Male1.ASF
:FULLY-SPECIFIED
:DEGREES
32
root -28.5639 17.1475 0.163924 27.1403 86.3252 24.8984
lowerback 5.0345 0.834684 -4.14743
upperback 0.963445 0.904615 -0.266601
thorax -1.88979 0.482062 1.99215
lowerneck -20.9484 2.45308 3.79802
upperneck 25.6825 2.83439 -1.32819
head 12.0026 1.56388 -0.653279
rclavicle -1.11816e-015 -5.36719e-015
rhumerus -32.4364 2.6886 -88.7396
rradius 29.8906
rwrist 6.09378
rhand -12.5153 -26.5714
rfingers 7.12502
rthumb 13.5604 -56.1098
lclavicle -1.11816e-015 -5.36719e-015
lhumerus -29.839 -16.1582 94.5908
lradius 26.2444
lwrist -11.1367
lhand -13.9673 -27.0739
lfingers 7.12502
lthumb 12.1606 2.55264
rfemur 8.29197 -3.06861 12.6602
rtibia 3.62941
rfoot -15.457 -4.57286
rtoes -1.56392
lfemur 10.7109 1.47994 -16.6386
ltibia -2.1043
lfoot -10.6491 7.56816
ltoes 0
33
root -28.5693 17.149 0.165019 27.2661 86.3419 25.0299
lowerback 5.1057 0.826546 -4.1251
upperback 0.934035 0.890264 -0.279991
thorax -1.95846 0.476413 1.96569
lowerneck -20.9013 2.49243 3.84815
upperneck 25.683 2.87996 -1.33968
head 11.996 1.58837 -0.65886
rclavicle 3.47873e-015 1.5704e-014
rhumerus -32.5767 2.65498 -88.7132
rradius 29.9704
rwrist 6.11722
rhand -12.6756 -26.6127
rfingers 7.12502
rthumb 13.4059 -56.1613
lclavicle 3.47873e-015 1.5704e-014
lhumerus -29.8589 -15.9338 94.4717
lradius 26.1458
lwrist -11.3171
lhand -14.3128 -26.8126
lfingers 7.12502
lthumb 11.8275 2.83342
rfemur 8.2613 -3.01895 12.6688
rtibia 3.68588
rfoot -15.5514 -4.58473
rtoes -1.15653
lfemur 10.691 1.34802 -16.6637
ltibia -2.09884
lfoot -10.702 7.64525
ltoes 0
34
root -28.5725 17.1482 0.166219 27.5092 86.3433 25.2421
lowerback 5.11025 0.800402 -4.15192
upperback 0.9022 0.852699 -0.271449
thorax -1.99191 0.458785 1.99184
lowerneck -20.8491 2.49402 3.81998
upperneck 25.6837 2.89035 -1.3224
head 11.9854 1.59326 -0.646412
rclavicle 2.5842e-015 8.94531e-016
rhumerus -32.6882 2.72768 -88.6892
rradius 30.0183
rwrist 6.16743
rhand -12.632 -26.6781
rfingers 7.12502
rthumb 13.4479 -56.224
lclavicle 2.5842e-015 8.94531e-016
lhumerus -29.9396 -15.8026 94.4114
lradius 26.0725
lwrist -11.4779
lhand -15.7344 -26.615
lfingers 7.12502
lthumb 10.4564 3.105
rfemur 8.19697 -2.70822 12.7729
rtibia 3.6201
rfoot -15.637 -4.95019
rtoes -1.33702
lfemur 10.7465 0.804091 -16.8375
ltibia -2.28926
lfoot -10.8428 8.03895
ltoes 0
35
root -28.5727 17.1461 0.168487 26.6597 86.285 24.3584
lowerback 5.04454 0.805413 -4.14182
upperback 0.90054 0.862896 -0.272577
thorax -1.95737 0.463075 1.98508
lowerneck -20.8243 2.49047 3.82189
upperneck 25.6811 2.8828 -1.31163
head 11.9791 1.59178 -0.644177
rclavicle -2.02512e-015 -5.96354e-016
rhumerus -32.6892 2.72954 -88.6902
rradius 29.9705
rwrist 6.24337
rhand -12.376 -26.6222
rfingers 7.12502
rthumb 13.6947 -56.1516
lclavicle -2.02512e-015 -5.96354e-016
lhumerus -29.9503 -15.619 94.2685
lradius 25.9235
lwrist -11.8338
lhand -16.7175 -26.64
lfingers 7.12502
lthumb 9.50788 3.12553
rfemur 8.12893 -2.47841 12.898
rtibia 3.57948
rfoot -15.6347 -5.08376
rtoes -1.37634
lfemur 10.6558 1.20872 -16.6568
ltibia -2.14604
lfoot -10.8791 7.68887
ltoes 0
36
root -28.5745 17.1457 0.170502 26.0696 86.2393 23.7658
lowerback 5.03945 0.821505 -4.15203
upperback 0.901519 0.884169 -0.263553
thorax -1.9552 0.473681 1.99871
lowerneck -20.7848 2.48847 3.85345
upperneck 25.6307 2.88934 -1.38068
head 11.9536 1.58821 -0.674858
rclavicle -8.3738e-015 -6.85807e-015
rhumerus -32.674 2.68783 -88.6687
rradius 29.9611
rwrist 6.25004
rhand -12.2121 -26.7411
rfingers 7.12502
rthumb 13.8526 -56.2598
lclavicle -8.3738e-015 -6.85807e-015
lhumerus -29.8978 -15.3697 94.1343
lradius 25.7251
lwrist -12.1111
lhand -16.9219 -26.6461
lfingers 7.12502
lthumb 9.31075 3.12829
rfemur 8.09862 -2.38652 12.9541
rtibia 3.64347
rfoot -15.6637 -5.08139
rtoes -1.0947
lfemur 10.6334 1.26223 -16.6166
ltibia -2.11112
lfoot -10.8413 7.79577
ltoes 0
37
root -28.5767 17.147 0.170275 27.6831 86.1973 25.3781
lowerback 5.05131 0.821961 -4.26611
upperback 0.899842 0.877921 -0.285739
thorax -1.96445 0.471582 2.04007
lowerneck -20.787 2.48681 3.8422
upperneck 25.6192 2.8996 -1.41272
head 11.9501 1.58714 -0.683329
rclavicle -1.33434e-014 2.28602e-015
rhumerus -32.6375 2.64338 -88.6309
rradius 29.9522
rwrist 6.21854
rhand -12.1534 -26.939
rfingers 7.12502
rthumb 13.9092 -56.4538
lclavicle -1.33434e-014 2.28602e-015
lhumerus -29.8249 -15.1687 94.0351
lradius 25.5338
lwrist -12.3038
lhand -16.395 -26.5507
lfingers 7.12502
lthumb 9.81904 3.2004
rfemur 8.0732 -2.60674 12.7366
rtibia 3.7717
rfoot -15.6908 -4.92323
rtoes -1.15445
lfemur 10.7528 0.549903 -17.0134
ltibia -2.40624
lfoot -10.7967 8.56411
ltoes 0
